<svg xmlns="http://www.w3.org/2000/svg" viewBox="0 0 475 86.2">
  <g>
    <path d="M1,51.2c.3-1.8,1-4.3,2-7.9s1.7-6.3,2.2-8C10.4,18.1,24.4,9.9,40.7,9.9s25.8,8.2,21.7,25.4c-.8,3.6-1.5,6.2-1.9,8C57.8,52.9,55.1,63,45.2,69.9c-6.2,4.2-13.6,6.3-22.4,6.3C6.4,76.2-3.2,68.5,1,51.2Zm39.4-.6c1.1-3.5,1.8-6,2.3-7.6s1-4,1.8-7.5c1.7-6.9-.1-11.7-7.5-11.7S25.1,28.5,23,35.5L20.9,43c-.9,3.3-1.6,5.9-1.9,7.6-1.7,7,.3,11.8,7.6,11.8S38.4,57.5,40.4,50.6Z" style="fill: #b56969"/>
    <path d="M71.2,18.9a11.5,11.5,0,0,1,4-5.8,13.1,13.1,0,0,1,3.1-1.7,8.4,8.4,0,0,1,3.1-.5h36.9a1.9,1.9,0,0,1,1.7,2.4L117.4,23a2.8,2.8,0,0,1-1.2,1.6,3,3,0,0,1-1.8.6H81.3c2.7,0,4.4,2.2,3.7,5L82.9,38H105c1.5,0,2.1.9,1.7,2.4l-2.6,9.7a2.8,2.8,0,0,1-1.1,1.7,3.3,3.3,0,0,1-1.9.6H73.9a3.8,3.8,0,0,1,3.8,4.9L73.5,72.7a3.2,3.2,0,0,1-1.1,1.7,2.3,2.3,0,0,1-1.8.6H58.3c-1.3,0-2-.9-1.6-2.3Z" style="fill: #b56969"/>
    <path d="M121.9,18.9a11.7,11.7,0,0,1,4.1-5.8,14.6,14.6,0,0,1,3-1.7,8.7,8.7,0,0,1,3.1-.5H169a1.9,1.9,0,0,1,1.8,2.4L168.1,23a2.6,2.6,0,0,1-1.1,1.6,3.3,3.3,0,0,1-1.9.6H132a3.7,3.7,0,0,1,3.7,5L133.6,38h22.1c1.6,0,2.2.9,1.8,2.4l-2.7,9.7a3.2,3.2,0,0,1-1,1.7,3.4,3.4,0,0,1-2,.6H124.7a3.7,3.7,0,0,1,3.7,4.9l-4.2,15.4a2.7,2.7,0,0,1-1.1,1.7,2.1,2.1,0,0,1-1.8.6H109.1a1.6,1.6,0,0,1-1.7-2.3Z" style="fill: #b56969"/>
  </g>
  <g>
    <path d="M313.1,10.8q2.4,0,1.8,2.4l-2.8,10.2a2.6,2.6,0,0,1-1.1,1.7,2.8,2.8,0,0,1-1.9.7H287.7a3.8,3.8,0,0,1,3.9,4.8L280.2,72.9a3,3,0,0,1-1.1,1.7,3.3,3.3,0,0,1-1.9.6H264.4a1.8,1.8,0,0,1-1.8-2.3l12-44.3a2.5,2.5,0,0,0-.3-2.1,2.3,2.3,0,0,0-1.7-.7H259.1a1.6,1.6,0,0,1-1.5-.7c-.4-.4-.4-.9-.2-1.7l1.2-4.7a11.1,11.1,0,0,1,10.2-7.9Z" style="fill: #b56969"/>
    <path d="M315.1,18.9a11.1,11.1,0,0,1,10.2-8H363a1.9,1.9,0,0,1,1.8,2.4l-2.5,9.1a3.1,3.1,0,0,1-1.1,1.6,2.7,2.7,0,0,1-1.9.6H325.1a3.7,3.7,0,0,1,3.7,5l-1,3.9a2.1,2.1,0,0,0,2.1,2.9H350c1.5,0,2.1.8,1.7,2.4l-2.2,8.3a3,3,0,0,1-3.1,2.4h-28a3.7,3.7,0,0,1,3.8,4.8L321,58.7a2.2,2.2,0,0,0,.3,1.9,1.7,1.7,0,0,0,1.8.9h27a1.7,1.7,0,0,1,1.8,2.4L349.4,73a3.2,3.2,0,0,1-3,2.3H302.2a1.6,1.6,0,0,1-1.7-2.3Z" style="fill: #b56969"/>
    <path d="M376.8,76.2c-8.6,0-18.6-2-22.1-9.4a13,13,0,0,1-1-9.1,2.4,2.4,0,0,1,1-1.4,2.7,2.7,0,0,1,1.6-.6h12.2c1.6,0,2.3.4,2.9,1.7a6,6,0,0,0,3.4,4,15,15,0,0,0,5.8,1.1l3.2-.3a13.7,13.7,0,0,0,3.5-.8c2.4-.8,4.4-2.3,5.1-4.7a3.2,3.2,0,0,0-1-3.6,15.4,15.4,0,0,0-3.4-1.7c-2.7-.9-5.4-1.5-8.1-2.2-10.8-2.3-20.5-6.5-16.9-19.7S382,9.9,394.1,9.9c8.6,0,16.9,2.9,20.4,9.8a12.3,12.3,0,0,1,1.2,8.3,5.6,5.6,0,0,1-1,1.5,3,3,0,0,1-1.5.5H400.3a2.5,2.5,0,0,1-2.7-1.7,3.6,3.6,0,0,0-.7-2.2,7.9,7.9,0,0,0-1.7-1.4l-2.4-.7-2.5-.2c-3.7,0-8.4.9-9.6,5.4a3.6,3.6,0,0,0,1.7,4.2c1.5,1,4.7,2.1,9.4,3.1,11.4,1.8,22.3,5.6,18.5,19.4S389.5,76.2,376.8,76.2Z" style="fill: #b56969"/>
    <path d="M473.1,10.8c1.6,0,2.2.8,1.7,2.4l-2.7,10.2a3,3,0,0,1-1.1,1.7,2.8,2.8,0,0,1-1.9.7H447.7a3.8,3.8,0,0,1,3.9,4.8L440.2,72.9a3,3,0,0,1-1.1,1.7,3.4,3.4,0,0,1-2,.6H424.4a1.7,1.7,0,0,1-1.8-2.3l11.9-44.3a2.2,2.2,0,0,0-.2-2.1,2.6,2.6,0,0,0-1.8-.7H419.1a1.7,1.7,0,0,1-1.8-2.4l1.3-4.7a11,11,0,0,1,10.2-7.9Z" style="fill: #b56969"/>
  </g>
  <path d="M168.4,85.6a2.2,2.2,0,0,1-1.7-.7c-.5-.4-.5-1-.4-1.7a3.1,3.1,0,0,1,.9-1.4L247,2.9c1.7-1.7,2.7-2.3,4.8-2.3h9a2.6,2.6,0,0,1,1.8.6,1.9,1.9,0,0,1,.3,1.8,2.9,2.9,0,0,1-.8,1.4L182.2,83.3a7,7,0,0,1-4.8,2.3Zm6.4-57.9c.6-2.5.9-4.1,1.2-5.1,1.7-6.7,3.7-13.5,10.2-18.2A23.9,23.9,0,0,1,200.6,0c10.2,0,16.2,5.2,14.2,16.1-.8,3.3-1.2,5.4-1.5,6.5-3.5,13.1-10.8,20.9-24.3,20.9C179.1,43.5,172.9,38.2,174.8,27.7Zm23.9-.8c.7-2.4,1.3-4.1,1.6-5s.5-2.7,1-5,.2-5.9-3.7-5.9-5.4,2-6.8,5.9c-.4,1.1-.8,2.8-1.4,5a48.3,48.3,0,0,0-1.2,5c-.6,3.2.4,5.8,3.7,5.8S197.6,30.2,198.7,26.9Zm16,43.3c.5-2.5.8-4.2,1.1-5.1,1.7-6.6,3.9-13.5,10.3-18.2a23.3,23.3,0,0,1,14.4-4.4c10.3,0,16.5,5.3,14.1,16.3-.8,3.2-1.2,5.3-1.5,6.3-3.4,12.8-10.8,21.1-24.2,21.1C219,86.2,212.7,80.7,214.7,70.2Zm23.9-.8c.8-2.4,1.3-4.1,1.6-5.1s.6-2.6,1.1-4.9-.3-5.7-3.8-5.7-5.6,2.4-6.7,5.7c-.4,1.1-.9,2.8-1.5,4.9s-1,3.9-1.2,5.1c-.6,3.3.2,5.9,3.7,5.9S237.5,72.6,238.6,69.4Z" style="fill: #e6cf8b"/>
</svg>
